<svg xmlns="http://www.w3.org/2000/svg" width="32" height="32" viewBox="0 0 892 778" fill="none" style="max-width: 100%; height: auto;">
<g clip-path="url(#clip0_3271_521)">
<rect width="892" height="778" fill=""/>
<path d="M497.715 648.4C499.303 648.949 500.593 649.465 502.035 650.358C500.632 652.012 501.102 652.772 501.254 654.79L490.227 649.736L497.715 648.4Z" fill="#E0B566"/>
<path d="M2.375 528.374L2.89631 527.72L3.82574 527.907C5.78743 532.232 8.40881 536.226 11.5962 539.746L10.4074 544.46C6.20068 539.687 3.77348 534.569 2.375 528.374Z" fill="#DBAD59"/>
<path d="M25.9648 472.668C32.2415 469.447 38.3984 465.899 44.5957 462.522L47.1565 465.061C42.1751 468.414 37.1514 472.394 31.8843 475.221L26.9777 476.615L25.9648 472.668Z" fill="#DBAD59"/>
<path d="M4.38281 497.166C4.49064 496.776 4.59514 496.386 4.7076 495.997C7.58396 486.104 17.1173 477.449 25.9614 472.668L26.9742 476.615C23.7499 479.011 20.5004 481.556 17.593 484.328C13.7402 488.002 9.20011 495.14 4.38281 497.166Z" fill="#DBAD59"/>
<path d="M821.435 250.244C823.174 248.406 824.418 246.226 825.748 244.086L826.621 244.23C823.962 257.726 818.795 271.778 813.695 284.565C811.855 285.616 811.564 285.993 809.395 285.789C812.385 275.794 816.883 259.102 821.435 250.244Z" fill="#E0D291"/>
<path d="M687.199 642.425C687.689 630.425 695.958 610.783 700.774 599.331C702.282 600.51 702.659 600.308 704.611 600.326C699.352 614.938 692.644 629.585 688.469 644.483L687.768 646.09L687.199 642.425Z" fill="#E0B566"/>
<path d="M44.5859 462.522C56.6537 455.516 68.7009 448.537 80.5913 441.232L81.3878 445.623C69.6746 454.51 59.1251 457.875 47.1467 465.061L44.5859 462.522Z" fill="#E0B566"/>
<path d="M26.9652 476.615L31.8718 475.22C17.105 486.101 7.51678 495.482 4.58222 514.354C3.88165 518.863 3.92991 523.36 3.82208 527.907L2.89265 527.72L2.37134 528.375C-0.473261 518.796 1.07145 506.43 4.37383 497.165C9.19113 495.14 13.7312 488.002 17.584 484.328C20.4915 481.556 23.7409 479.01 26.9652 476.615Z" fill="#E0B566"/>
<path d="M723.435 537.427C724.017 539.082 724.196 539.988 725.539 541.205C720.246 561.276 711.263 580.649 704.614 600.327C702.663 600.308 702.286 600.511 700.777 599.331C704.489 590.506 707.095 581.085 710.317 572.059C714.458 560.457 719.115 548.976 723.435 537.427Z" fill="#E0D291"/>
<path d="M157.172 396.874C160.099 394.588 164.412 392.767 167.675 390.803C178.745 384.142 189.855 377.371 201.198 371.187L203.076 372.187C203.03 372.551 202.951 372.912 202.944 373.279C202.944 373.44 203.017 373.593 203.05 373.75L203.771 374.039C191.052 384.045 178.086 392.258 163.143 398.651C161.151 397.928 159.244 397.322 157.172 396.874Z" fill="#E0B566"/>
<path d="M809.394 285.789C811.564 285.994 811.855 285.617 813.694 284.565C810.042 294.473 807.178 304.605 803.751 314.583C800.569 323.824 796.811 332.819 793.53 342.009C791.314 348.214 789.779 354.805 787.179 360.85C786.961 357.831 788.092 354.434 786.465 351.89C788.741 344.371 791.691 336.956 794.304 329.539C799.405 319.012 802.811 306.079 806.02 294.794C806.787 291.742 808.236 288.72 809.394 285.789Z" fill="#E0B566"/>
<path d="M275.141 327.71C274.48 329.757 273.937 331.825 272.786 333.661C262.605 342.064 250.248 347.916 238.856 354.553C232.479 358.273 226.38 362.495 219.87 365.986C214.591 368.815 208.955 371.048 203.788 374.039L203.067 373.751C203.034 373.593 202.961 373.44 202.961 373.28C202.968 372.912 203.047 372.551 203.094 372.187L201.215 371.187C205.29 367.475 212.157 364.49 216.966 361.593C229.613 354.04 242.339 346.621 255.143 339.338C261.811 335.476 268.308 331.278 275.141 327.71Z" fill="#DBAD59"/>
<path d="M157.169 396.874C159.241 397.322 161.148 397.928 163.14 398.651C146.745 408.817 129.548 417.707 113.166 427.839C102.757 434.093 92.1579 440.024 81.3824 445.622L80.5859 441.231C92.649 433.928 104.894 426.929 117.31 420.243C130.871 413.047 143.795 404.452 157.169 396.874Z" fill="#DBAD59"/>
<path d="M786.475 351.891C788.102 354.434 786.971 357.831 787.19 360.85C786.336 365.691 784.266 370.625 782.711 375.315C778.927 386.726 774.852 398.033 770.982 409.414C760.053 441.522 749.839 474.021 738.143 505.859C734.875 517.993 731.402 530.016 725.541 541.206C724.198 539.989 724.02 539.083 723.438 537.428C727.413 527.217 730.622 516.722 734.65 506.518C736.88 494.944 741.874 483.406 745.731 472.297L764.453 418.922C766.589 412.881 768.078 406.605 770.155 400.531C772.854 392.603 776.076 384.832 778.629 376.857C781.295 368.537 783.333 360.054 786.475 351.891Z" fill="#E0D291"/>
<path d="M389.716 601.373C396.027 604.901 431.287 620.066 433.219 622.799L434.919 624.413C428.502 626.748 425.241 635.573 419.465 639.086C410.164 650.173 399.13 660.321 388.935 670.608C376.353 684.11 363.215 697.043 350.229 710.148C345.406 715.017 340.71 721.288 335.371 725.449C331.706 729.994 327.036 734.062 322.941 738.243C315.088 746.248 307.329 754.358 299.39 762.27C289.811 771.823 280.106 777.254 266.313 777.128C255.861 777.042 246.051 773.132 238.76 765.485C227.779 753.954 227.051 739.672 227.203 724.582C228.685 728.948 227.289 733.473 229.254 737.826C229.413 735.273 229.691 732.726 229.936 730.179C230.111 732.73 230.319 735.28 230.557 737.826C231.536 747.868 234.302 757.05 242.538 763.567C250.093 769.54 260.313 773.06 269.932 771.829C278.38 770.751 287.998 766.815 294.058 760.801C304.669 750.27 317.602 721.844 326.169 707.462C332.844 696.269 340.432 685.631 347.272 674.537C357.453 658.012 367.045 641.103 377.107 624.499C381.288 617.599 383.868 608.297 388.916 602.285C389.174 601.975 389.445 601.677 389.716 601.373Z" fill="#B12029"/>
<path d="M386.514 668.934C389.253 661.102 406.526 647.931 413.128 641.322C411.044 644.008 406.751 647.977 406.056 651.218C410.349 649.677 414.074 641.123 419.479 639.086C410.177 650.173 399.143 660.321 388.949 670.608C376.366 684.11 363.228 697.043 350.242 710.148C345.42 715.017 340.723 721.288 335.384 725.449L335.047 724.675L341.503 716.413L341.226 715.89C339.929 716.962 339.135 717.762 337.475 718.225C339.697 712.834 379.78 675.351 386.514 668.934Z" fill="#902831"/>
<path d="M780.09 31.9909C794.617 23.5397 822.229 4.78914 837.994 1.69871C844.629 0.397206 851.192 0.881386 857.886 1.44792C865.587 3.19887 872.03 7.67297 877.858 12.848C887.172 23.4981 891.909 35.1709 891.009 49.4455C890.507 57.4408 888.443 67.3208 884.996 74.5408C881.642 86.1798 877.534 97.4014 873.657 108.853C863.106 136.642 853.547 165.223 844.199 193.46C839.013 209.147 833.231 229.461 826.629 244.23L825.755 244.086C824.426 246.226 823.182 248.405 821.442 250.244C816.891 259.102 812.392 275.794 809.402 285.789C808.245 288.719 806.796 291.742 806.029 294.794C802.82 306.078 799.413 319.011 794.313 329.539C791.7 336.955 788.749 344.371 786.474 351.89C783.331 360.053 781.294 368.537 778.628 376.856C776.074 384.831 772.853 392.602 770.153 400.53C768.076 406.604 766.588 412.88 764.451 418.921L745.73 472.296C741.873 483.405 736.878 494.944 734.649 506.518C730.62 516.721 727.412 527.216 723.436 537.427C719.116 548.976 714.459 560.457 710.318 572.059C707.096 581.085 704.49 590.506 700.778 599.331C695.962 610.784 687.693 630.425 687.204 642.426L686.43 642.988C684.67 648.948 684.154 655.24 682.441 661.253C678.121 676.475 666.187 689.163 652.519 696.605C639.719 703.578 624.576 706.621 610.393 702.407C602.104 699.946 592.564 695.706 585.638 690.519L583.964 692.246C574.273 686.378 562.286 682.429 551.86 677.917C538.815 672.406 526.074 666.658 513.352 660.433C509.361 658.467 505.329 656.586 501.259 654.79C501.107 652.772 500.637 652.011 502.04 650.357C500.598 649.464 499.308 648.948 497.72 648.399L490.232 649.736C481.479 645.647 472.416 642.273 463.671 638.132C460.377 636.842 457.214 634.95 454.072 633.303C447.979 629.903 441.285 627.303 434.927 624.412L433.227 622.798C431.295 620.066 396.036 604.9 389.725 601.372C389.453 601.676 389.182 601.975 388.924 602.284C383.877 608.296 381.297 617.598 377.116 624.498C367.054 641.102 357.462 658.011 347.281 674.536C340.44 685.63 332.852 696.268 326.178 707.461C317.611 721.843 304.678 750.269 294.067 760.801C288.007 766.814 278.388 770.75 269.94 771.828C260.322 773.059 250.101 769.539 242.546 763.566C234.31 757.05 231.545 747.868 230.566 737.826C230.327 735.279 230.12 732.73 229.944 730.178C229.699 732.725 229.421 735.272 229.263 737.826C227.298 733.473 228.694 728.948 227.212 724.582C226.2 694.336 226.16 663.998 224.844 633.773C223.812 610.004 221.139 584.502 222.541 560.85C217.024 558.811 206.215 560.784 200.188 561.01C172.289 562.408 144.03 561.473 116.085 561.511C94.2308 561.541 72.1937 562.846 50.3836 561.335C38.8927 560.206 27.3172 559.771 18.1106 551.852C15.1794 549.59 12.8541 547.22 10.4137 544.46L11.6024 539.746C8.4151 536.226 5.79372 532.231 3.83203 527.907C3.93986 523.36 3.8916 518.863 4.59217 514.354C7.52674 495.481 17.115 486.101 31.8818 475.22C37.1489 472.393 42.1726 468.413 47.154 465.06C59.1324 457.874 69.6819 454.509 81.395 445.622C92.1705 440.024 102.77 434.093 113.179 427.839C129.561 417.707 146.757 408.817 163.152 398.651C178.096 392.257 191.062 384.045 203.78 374.039C208.947 371.047 214.583 368.815 219.862 365.986C226.372 362.495 232.471 358.272 238.848 354.553C250.24 347.915 262.597 342.064 272.778 333.661C273.93 331.825 274.472 329.756 275.133 327.71C279.857 324.608 284.964 321.762 289.932 319.066C307.119 308.258 324.689 297.486 342.736 288.187C360.405 276.631 378.796 266.085 397.015 255.427C408.023 248.984 418.845 242.032 430.224 236.262C441.635 229.726 452.683 222.565 464.227 216.265C476.465 209.671 487.976 201.968 500.088 195.236C501.623 193.472 506.578 191.83 508.834 190.739C517.52 187.405 609.07 133.924 613.29 129.195L614.183 128.604C623.061 122.926 632.204 117.32 641.71 112.763C657.461 103.08 673.563 94.1493 689.506 84.8164L734.358 58.0236L735.099 57.4408C743.143 52.2398 751.961 47.1724 760.694 43.2231C764.616 39.2095 774.864 34.8355 780.09 31.9909Z" fill="url(#paint0_linear_3271_521)"/>
<path d="M11.5989 539.747C16.0795 544.501 20.486 549.424 26.5251 552.217C24.9487 553.209 24.1668 553.583 22.2741 553.182C20.8704 552.885 19.4613 552.326 18.1071 551.853C15.1759 549.591 12.8506 547.221 10.4102 544.461L11.5989 539.747Z" fill="#E0B566"/>
<path d="M502.042 650.357C508.188 652.461 513.864 655.557 519.619 658.54C517.614 658.97 515.021 659.235 513.354 660.432C509.363 658.467 505.331 656.585 501.261 654.789C501.109 652.772 500.639 652.011 502.042 650.357Z" fill="#E0B566"/>
<path d="M794.32 329.539C794.611 327.959 794.803 326.526 794.598 324.916C794.439 323.658 794.168 322.391 794.128 321.12C793.884 313.975 796.642 305.779 801.352 300.414C802.961 298.58 804.523 296.707 806.036 294.794C802.827 306.078 799.421 319.011 794.32 329.539Z" fill="#DBAD59"/>
<path d="M433.215 622.798C435.643 621.587 436.741 621.422 439.347 622.295C443.971 623.843 448.43 626.363 452.704 628.699C456.699 630.267 462.296 631.94 465.696 634.54C464.625 635.777 464.095 636.551 463.659 638.132C460.364 636.842 457.202 634.95 454.06 633.303C447.967 629.903 441.272 627.303 434.915 624.412L433.215 622.798Z" fill="#E0B566"/>
<path d="M463.676 638.132C464.112 636.551 464.642 635.777 465.713 634.54C475.471 638.324 488.92 643.187 497.725 648.399L490.236 649.736C481.484 645.647 472.421 642.274 463.676 638.132Z" fill="#E0D291"/>
<path d="M881.567 72.6682L882.765 73.4574C882.672 74.8632 882.341 76.0936 881.957 77.4471L882.288 77.7243C882.923 76.2987 883.386 74.9677 884.432 73.7908L885.007 74.5404C881.653 86.1794 877.545 97.401 873.668 108.853L870.744 109.379L869.699 108.471C873.238 96.418 878.379 84.8749 881.567 72.6682Z" fill="#E0D291"/>
<path d="M51.2148 556.452C62.2492 556.153 73.3657 556.914 84.4233 556.868C116.793 556.615 149.164 556.573 181.535 556.742C195.365 556.865 210.196 557.707 223.883 557.348C223.487 558.445 223.162 559.883 222.54 560.851C217.023 558.812 206.214 560.785 200.187 561.011L201.127 559.143L200.816 558.224C195.822 556.053 76.6291 558.349 58.1239 557.431C55.9468 557.318 53.1333 557.498 51.2148 556.452Z" fill="#E0B566"/>
<path d="M519.609 658.541C530.994 665.679 544.542 669.86 556.694 675.569C562.033 677.017 582.752 684.44 585.239 688.832C585.65 689.553 585.564 689.692 585.63 690.519L583.956 692.246C574.264 686.378 562.278 682.429 551.852 677.917C538.806 672.406 526.065 666.658 513.344 660.433C515.011 659.235 517.604 658.971 519.609 658.541Z" fill="#E0B566"/>
<path d="M464.225 216.266C476.464 209.671 487.975 201.968 500.087 195.236C498.632 201.15 491.686 206.061 486.705 209.108C481.961 212.012 474.016 216.675 468.539 217.791C456.009 225.782 443.433 233.858 430.567 241.286C430.676 240.829 430.78 240.37 430.878 239.91C431.308 237.86 431.367 237.984 430.223 236.262C441.634 229.727 452.682 222.565 464.225 216.266Z" fill="#DBAD59"/>
<path d="M877.852 12.8484C887.166 23.4985 891.903 35.1713 891.003 49.4459C890.5 57.4412 888.436 67.3212 884.99 74.5412L884.414 73.7917C883.369 74.9686 882.906 76.2996 882.271 77.7252L881.94 77.448C882.324 76.0945 882.655 74.864 882.747 73.4583L881.55 72.6691C881.55 72.6234 881.55 72.5778 881.557 72.5335C882.238 69.0121 882.648 65.5688 882.966 61.9932C884.282 47.4871 884.963 26.7228 874.961 14.7632L877.852 12.8484Z" fill="#DBAD59"/>
<path d="M342.727 288.187C346.14 289.396 349.977 287.603 353.331 286.603C344.367 291.599 336.178 297.451 327.505 302.891C316.279 309.932 304.027 316.844 292.093 322.609C285.961 326.715 279.391 330.386 272.77 333.661C273.921 331.825 274.463 329.757 275.125 327.71C279.848 324.608 284.955 321.762 289.923 319.066C307.11 308.258 324.68 297.486 342.727 288.187Z" fill="#DBAD59"/>
<path d="M430.218 236.262C431.363 237.984 431.303 237.86 430.873 239.91C430.775 240.37 430.672 240.829 430.562 241.287C420.395 245.415 411.219 252.468 401.766 257.996C385.571 267.466 368.967 276.151 353.335 286.603C349.981 287.603 346.144 289.397 342.73 288.187C360.4 276.632 378.791 266.086 397.009 255.428C408.017 248.985 418.84 242.032 430.218 236.262Z" fill="#DBAD59"/>
<path d="M821.434 250.244C823.431 242.712 825.251 235.012 827.725 227.623C830.305 219.934 833.692 212.53 836.206 204.815C838.825 196.768 840.327 188.346 843.205 180.388C846.863 170.295 851.507 160.585 855.04 150.424C858.42 140.697 865.472 115.882 869.679 108.472L870.725 109.379L873.649 108.853C863.097 136.642 853.538 165.223 844.19 193.46C839.004 209.147 833.222 229.461 826.62 244.23L825.747 244.086C824.417 246.226 823.173 248.406 821.434 250.244Z" fill="#DBAD59"/>
<path d="M26.5274 552.217C34.8383 555.244 42.4022 556.205 51.2145 556.451C53.133 557.497 55.9465 557.317 58.1236 557.43C76.6287 558.348 195.822 556.052 200.815 558.223L201.126 559.142L200.187 561.01C172.288 562.408 144.029 561.473 116.084 561.511C94.2295 561.541 72.1925 562.846 50.3823 561.335C38.8915 560.206 27.316 559.771 18.1094 551.852C19.4635 552.326 20.8726 552.884 22.2764 553.181C24.169 553.582 24.951 553.208 26.5274 552.217Z" fill="#DBAD59"/>
<path d="M780.078 31.9909C794.606 23.5398 822.218 4.78914 837.982 1.69871C844.618 0.397206 851.18 0.881386 857.875 1.44792C865.575 3.19887 872.018 7.67297 877.846 12.848L874.956 14.7628C869.266 9.58282 862.664 6.6417 855.361 4.52472C839.821 1.89301 824.222 13.4391 811.203 20.3736C805.646 23.3353 799.593 25.8406 794.182 29.0034C783.201 34.8738 770.235 44.138 758.77 48.0205C754.827 51.0768 750.104 53.6489 745.606 55.8233C742.702 58.0653 738.891 61.8234 735.57 63.1584C729.2 68.0611 721.499 71.4607 714.626 75.637C707.739 79.8192 701.329 84.7304 694.456 88.9133C684.897 94.7289 674.855 99.8114 665.15 105.38C658.362 109.271 650.662 114.731 643.068 116.681C637.868 119.259 620.734 130.736 616.375 130.569C615.369 129.915 614.939 129.579 614.172 128.604C623.05 122.926 632.192 117.32 641.698 112.763C657.449 103.08 673.551 94.1494 689.494 84.8164L734.346 58.0236L735.087 57.4408C743.131 52.2398 751.95 47.1724 760.682 43.2231C764.605 39.2095 774.852 34.8355 780.078 31.9909Z" fill="#DBAD59"/>
<path d="M223.878 557.347C257.027 531.791 288.86 504.39 321.236 477.863L566.136 276.003L642.186 213.442C654.736 202.992 666.928 190.778 680.476 181.709C686.509 177.669 693.032 175.223 700.408 176.136C707.063 176.96 712.858 180.595 716.907 185.893C719.155 188.8 720.767 192.146 721.637 195.716C722.508 199.286 722.618 202.998 721.961 206.613C721.279 210.335 717.945 213.696 715.636 216.565C708.604 225.296 700.95 233.572 693.654 242.086L650.912 292.44L434.411 547.477C428.239 554.812 391.028 595.953 389.718 601.372C389.447 601.677 389.176 601.975 388.918 602.285C383.87 608.297 381.29 617.599 377.109 624.498C367.047 641.103 357.455 658.012 347.274 674.537C340.434 685.631 332.846 696.268 326.171 707.462C317.604 721.843 304.671 750.269 294.06 760.801C288 766.814 278.382 770.751 269.934 771.829C260.315 773.059 250.094 769.54 242.54 763.566C234.304 757.05 231.538 747.868 230.559 737.826C230.321 735.28 230.113 732.73 229.938 730.179C229.693 732.726 229.415 735.272 229.256 737.826C227.291 733.473 228.687 728.948 227.205 724.582C226.193 694.337 226.153 663.999 224.837 633.773C223.805 610.004 221.132 584.503 222.535 560.851C223.157 559.882 223.481 558.445 223.878 557.347Z" fill="#DB2A33"/>
</g>
<defs>
<linearGradient id="paint0_linear_3271_521" x1="196.296" y1="147.936" x2="787.651" y2="460.212" gradientUnits="userSpaceOnUse">
<stop stop-color="#F59614"/>
<stop offset="1" stop-color="#FDB228"/>
</linearGradient>
<clipPath id="clip0_3271_521">
<rect width="892" height="778" fill="white"/>
</clipPath>
</defs>
</svg>