<svg width="24" height="24" viewBox="0 0 882 736" fill="none" xmlns="http://www.w3.org/2000/svg" style="max-width: 100%; height: auto;">
<g clip-path="url(#clip0_3254_518)">
<path d="M698.25 0.5H183.75C82.4303 0.5 0 82.9303 0 184.25V551.75C0 653.07 82.4303 735.5 183.75 735.5H698.25C799.57 735.5 882 653.07 882 551.75V184.25C882 82.9303 799.57 0.5 698.25 0.5ZM73.5 294.5H220.5V441.5H73.5V294.5ZM294 294.5H808.5V441.5H294V294.5ZM808.5 184.25V221H294V74H698.25C759.035 74 808.5 123.465 808.5 184.25ZM183.75 74H220.5V221H73.5V184.25C73.5 123.465 122.965 74 183.75 74ZM73.5 551.75V515H220.5V662H183.75C122.965 662 73.5 612.535 73.5 551.75ZM698.25 662H294V515H808.5V551.75C808.5 612.535 759.035 662 698.25 662Z" fill="black"/>
</g>
<defs>
<clipPath id="clip0_3254_518">
<rect width="882" height="736" fill="white"/>
</clipPath>
</defs>
</svg>
